name analog
datacolumns 19
datarows 64
range 0.5640000000000001 0.5955
endheader
time	ground_force_vx	ground_force_vy	ground_force_vz	ground_force_px	ground_force_py	ground_force_pz	l_ground_force_vx	l_ground_force_vy	l_ground_force_vz	l_ground_force_px	l_ground_force_py	l_ground_force_pz	ground_torque_x	ground_torque_y	ground_torque_z	l_ground_torque_x	l_ground_torque_y	l_ground_torque_z
0.5640000000000001	-0.0	-0.0	-0.0	-0.0	-0.0	-0.0	-10.74825954437256	5.108465671539307	-437.4308776855469	-0.0	-0.0	-0.0	-0.0	-0.0	-0.0	135605.703125	42409.234375	-4371.939453125
0.5645	-0.0	-0.0	-0.0	-0.0	-0.0	-0.0	-11.074028968811035	5.43168306350708	-438.8836059570313	-0.0	-0.0	-0.0	-0.0	-0.0	-0.0	136040.203125	42701.79296875	-4446.2587890625
0.5650000000000001	-0.0	-0.0	-0.0	-0.0	-0.0	-0.0	-11.65062427520752	5.8881707191467285	-438.88287353515625	-0.0	-0.0	-0.0	-0.0	-0.0	-0.0	136818.125	43164.37890625	-4698.642578125
0.5655	-0.0	-0.0	-0.0	-0.0	-0.0	-0.0	-12.154014587402344	6.551054000854492	-440.28021240234375	-0.0	-0.0	-0.0	-0.0	-0.0	-0.0	136826.28125	43136.31640625	-4718.65380859375
0.5660000000000001	-0.0	-0.0	-0.0	-0.0	-0.0	-0.0	-12.198240280151367	6.2261738777160645	-441.67681884765625	-0.0	-0.0	-0.0	-0.0	-0.0	-0.0	136834.28125	43250.9453125	-4862.2216796875
0.5665	-0.0	-0.0	-0.0	-0.0	-0.0	-0.0	-11.901784896850586	6.344685077667236	-441.4479064941406	-0.0	-0.0	-0.0	-0.0	-0.0	-0.0	137080.734375	43577.1640625	-4718.0810546875
0.5670000000000001	-0.0	-0.0	-0.0	-0.0	-0.0	-0.0	-11.753223419189451	6.108599185943604	-442.7318115234375	-0.0	-0.0	-0.0	-0.0	-0.0	-0.0	137423.375	43983.27734375	-4787.55517578125
0.5675	-0.0	-0.0	-0.0	-0.0	-0.0	-0.0	-11.94485855102539	6.270839691162109	-444.4700317382813	-0.0	-0.0	-0.0	-0.0	-0.0	-0.0	137757.875	44428.97265625	-4956.74658203125
0.5680000000000001	-0.0	-0.0	-0.0	-0.0	-0.0	-0.0	-12.476815223693848	5.960343360900879	-445.2138671875	-0.0	-0.0	-0.0	-0.0	-0.0	-0.0	138601.75	44292.7421875	-5168.90234375
0.5685	-0.0	-0.0	-0.0	-0.0	-0.0	-0.0	-13.30348777770996	5.871833801269531	-448.7159729003906	-0.0	-0.0	-0.0	-0.0	-0.0	-0.0	139599.484375	44568.8125	-5422.18017578125
0.5690000000000001	-0.0	-0.0	-0.0	-0.0	-0.0	-0.0	-14.073064804077148	6.108324527740479	-450.81060791015625	-0.0	-0.0	-0.0	-0.0	-0.0	-0.0	139915.453125	45234.21484375	-5650.5634765625
0.5695	-0.0	-0.0	-0.0	-0.0	-0.0	-0.0	-15.463903427124023	5.694741725921631	-454.0637512207031	-0.0	-0.0	-0.0	-0.0	-0.0	-0.0	140875.140625	45486.01171875	-5808.197265625
0.5700000000000001	-0.0	-0.0	-0.0	-0.0	-0.0	-0.0	-16.378986358642578	5.782876491546631	-456.9841918945313	-0.0	-0.0	-0.0	-0.0	-0.0	-0.0	141796.34375	46020.59765625	-6200.5673828125
0.5705	-0.0	-0.0	-0.0	-0.0	-0.0	-0.0	-18.12981414794922	6.075439929962158	-461.5234375	-0.0	-0.0	-0.0	-0.0	-0.0	-0.0	143377.9375	46068.875	-6512.4482421875
0.5710000000000001	-0.0	-0.0	-0.0	-0.0	-0.0	-0.0	-19.22243881225586	6.052676200866699	-466.9251708984375	-0.0	-0.0	-0.0	-0.0	-0.0	-0.0	145082.40625	46380.52734375	-6784.8310546875
0.5715	-0.0	-0.0	-0.0	-0.0	-0.0	-0.0	-19.38046646118164	5.903775215148926	-472.1618957519531	-0.0	-0.0	-0.0	-0.0	-0.0	-0.0	146532.3125	46645.94921875	-6928.6328125
0.5720000000000001	-0.0	-0.0	-0.0	-0.0	-0.0	-0.0	-19.488849639892575	6.114013671875	-477.3444519042969	-0.0	-0.0	-0.0	-0.0	-0.0	-0.0	147986.796875	46744.8203125	-7017.62255859375
0.5725	-0.0	-0.0	-0.0	-0.0	-0.0	-0.0	-19.35921859741211	5.944810390472412	-481.4801025390625	-0.0	-0.0	-0.0	-0.0	-0.0	-0.0	149405.640625	46762.01171875	-7019.74853515625
0.5730000000000001	-0.0	-0.0	-0.0	-0.0	-0.0	-0.0	-18.73160171508789	6.338953971862793	-485.669921875	-0.0	-0.0	-0.0	-0.0	-0.0	-0.0	150706.875	46753.0625	-6791.107421875
0.5735	-0.0	-0.0	-0.0	-0.0	-0.0	-0.0	-18.056352615356445	6.719832897186279	-489.1614379882813	-0.0	-0.0	-0.0	-0.0	-0.0	-0.0	151561.765625	46599.20703125	-6503.02880859375
0.5740000000000001	-0.0	-0.0	-0.0	-0.0	-0.0	-0.0	-16.99201202392578	6.535804748535156	-491.3625183105469	-0.0	-0.0	-0.0	-0.0	-0.0	-0.0	151983.84375	45906.359375	-6121.216796875
0.5745	-0.0	-0.0	-0.0	-0.0	-0.0	-0.0	-15.258255004882812	6.91065788269043	-494.049560546875	-0.0	-0.0	-0.0	-0.0	-0.0	-0.0	152848.84375	45345.3828125	-5747.70849609375
0.5750000000000001	-0.0	-0.0	-0.0	-0.0	-0.0	-0.0	-13.976293563842772	6.725726127624512	-494.4169921875	-0.0	-0.0	-0.0	-0.0	-0.0	-0.0	153875.625	45076.125	-5402.62744140625
0.5755	-0.0	-0.0	-0.0	-0.0	-0.0	-0.0	-13.09358024597168	6.385592460632324	-499.2511291503906	-0.0	-0.0	-0.0	-0.0	-0.0	-0.0	155132.40625	44867.36328125	-5139.56884765625
0.5760000000000001	-0.0	-0.0	-0.0	-0.0	-0.0	-0.0	-13.036818504333496	6.473760604858398	-502.9716796875	-0.0	-0.0	-0.0	-0.0	-0.0	-0.0	155846.59375	44658.6171875	-5111.068359375
0.5765	-0.0	-0.0	-0.0	-0.0	-0.0	-0.0	-13.507128715515137	6.558793067932129	-504.71826171875	-0.0	-0.0	-0.0	-0.0	-0.0	-0.0	155987.40625	44790.0703125	-5258.47509765625
0.577	-0.0	-0.0	-0.0	-0.0	-0.0	-0.0	-13.940654754638672	5.816226959228516	-504.8218383789063	-0.0	-0.0	-0.0	-0.0	-0.0	-0.0	156290.296875	44856.61328125	-5518.12255859375
0.5775	-0.0	-0.0	-0.0	-0.0	-0.0	-0.0	-14.206709861755373	5.008481025695801	-504.2260437011719	-0.0	-0.0	-0.0	-0.0	-0.0	-0.0	156136.53125	44958.04296875	-5665.9794921875
0.578	-0.0	-0.0	-0.0	-0.0	-0.0	-0.0	-15.117857933044434	4.011337757110596	-502.6326293945313	-0.0	-0.0	-0.0	-0.0	-0.0	-0.0	155775.265625	44965.38671875	-5637.8408203125
0.5785	-0.0	-0.0	-0.0	-0.0	-0.0	-0.0	-15.57576847076416	2.7507612705230717	-503.6741333007813	-0.0	-0.0	-0.0	-0.0	-0.0	-0.0	155157.921875	44624.9375	-5832.7177734375
0.579	-0.0	-0.0	-0.0	-0.0	-0.0	-0.0	-15.714581489562988	1.2237874269485474	-501.8817138671875	-0.0	-0.0	-0.0	-0.0	-0.0	-0.0	154986.46875	44749.66796875	-5799.62451171875
0.5795	-0.0	-0.0	-0.0	-0.0	-0.0	-0.0	-16.398786544799805	0.2649650573730469	-502.6782836914063	-0.0	-0.0	-0.0	-0.0	-0.0	-0.0	154804.078125	45043.94140625	-5995.23193359375
0.58	-0.0	-0.0	-0.0	-0.0	-0.0	-0.0	-16.63973045349121	-0.7568813562393188	-502.280029296875	-0.0	-0.0	-0.0	-0.0	-0.0	-0.0	154351.0625	44689.87109375	-5961.73095703125
0.5805	-0.0	-0.0	-0.0	-0.0	-0.0	-0.0	-16.81736946105957	-1.463166356086731	-500.78228759765625	-0.0	-0.0	-0.0	-0.0	-0.0	-0.0	154266.390625	44870.703125	-6174.052734375
0.581	-0.0	-0.0	-0.0	-0.0	-0.0	-0.0	-16.715118408203125	-2.2204842567443848	-500.1867370605469	-0.0	-0.0	-0.0	-0.0	-0.0	-0.0	154026.03125	44743.4296875	-6080.6318359375
0.5815	-0.0	-0.0	-0.0	-0.0	-0.0	-0.0	-16.88166046142578	-2.725606679916382	-501.08148193359375	-0.0	-0.0	-0.0	-0.0	-0.0	-0.0	153903.21875	44576.26953125	-6030.34521484375
0.582	-0.0	-0.0	-0.0	-0.0	-0.0	-0.0	-16.83033561706543	-2.711165428161621	-501.5276184082031	-0.0	-0.0	-0.0	-0.0	-0.0	-0.0	153732.40625	44797.1171875	-5953.73046875
0.5825	-0.0	-0.0	-0.0	-0.0	-0.0	-0.0	-16.194486618041992	-3.0396182537078857	-499.684326171875	-0.0	-0.0	-0.0	-0.0	-0.0	-0.0	153296.296875	44589.6640625	-5673.0966796875
0.583	-0.0	-0.0	-0.0	-0.0	-0.0	-0.0	-16.221866607666016	-3.529625654220581	-500.2381896972656	-0.0	-0.0	-0.0	-0.0	-0.0	-0.0	152879.78125	44255.3671875	-5627.1015625
0.5835	-0.0	-0.0	-0.0	-0.0	-0.0	-0.0	-15.66537380218506	-3.886154174804688	-499.4447937011719	-0.0	-0.0	-0.0	-0.0	-0.0	-0.0	152598.578125	44069.17578125	-5393.5029296875
0.584	-0.0	-0.0	-0.0	-0.0	-0.0	-0.0	-15.044629096984863	-3.934214353561402	-497.4935607910156	-0.0	-0.0	-0.0	-0.0	-0.0	-0.0	151930.71875	43730.125	-5299.96875
0.5845	-0.0	-0.0	-0.0	-0.0	-0.0	-0.0	-14.205720901489258	-4.597450256347656	-495.88970947265625	-0.0	-0.0	-0.0	-0.0	-0.0	-0.0	151350.84375	43284.0703125	-4913.859375
0.585	-0.0	-0.0	-0.0	-0.0	-0.0	-0.0	-13.436308860778809	-4.957894802093506	-492.30377197265625	-0.0	-0.0	-0.0	-0.0	-0.0	-0.0	150329.578125	43204.8125	-4739.3681640625
0.5855	-0.0	-0.0	-0.0	-0.0	-0.0	-0.0	-12.74492073059082	-5.475944519042969	-492.0013122558594	-0.0	-0.0	-0.0	-0.0	-0.0	-0.0	149939.40625	42498.7734375	-4596.48779296875
0.586	-0.0	-0.0	-0.0	-0.0	-0.0	-0.0	-12.153377532958984	-6.070713996887207	-490.2088623046875	-0.0	-0.0	-0.0	-0.0	-0.0	-0.0	149262.609375	42317.68359375	-4362.91259765625
0.5865	-0.0	-0.0	-0.0	-0.0	-0.0	-0.0	-11.289702415466309	-6.382491588592529	-489.8136291503906	-0.0	-0.0	-0.0	-0.0	-0.0	-0.0	148579.703125	41558.65625	-4107.2060546875
0.587	-0.0	-0.0	-0.0	-0.0	-0.0	-0.0	-10.911426544189451	-7.107687473297119	-488.068115234375	-0.0	-0.0	-0.0	-0.0	-0.0	-0.0	148509.234375	41245.37109375	-3806.562744140625
0.5875	-0.0	-0.0	-0.0	-0.0	-0.0	-0.0	-10.475519180297852	-7.960481643676758	-488.2808227539063	-0.0	-0.0	-0.0	-0.0	-0.0	-0.0	148080.34375	40862.2421875	-3683.940673828125
0.588	-0.0	-0.0	-0.0	-0.0	-0.0	-0.0	-9.503557205200195	-8.390560150146484	-489.2066955566406	-0.0	-0.0	-0.0	-0.0	-0.0	-0.0	147742.84375	40602.62890625	-3638.33349609375
0.5885	-0.0	-0.0	-0.0	-0.0	-0.0	-0.0	-8.727950096130371	-8.535786628723145	-491.3463439941406	-0.0	-0.0	-0.0	-0.0	-0.0	-0.0	148312.265625	40413.421875	-3152.763671875
0.589	-0.0	-0.0	-0.0	-0.0	-0.0	-0.0	-8.504866600036621	-9.008811950683594	-494.8285217285156	-0.0	-0.0	-0.0	-0.0	-0.0	-0.0	148736.953125	39880.765625	-2926.817138671875
0.5895	-0.0	-0.0	-0.0	-0.0	-0.0	-0.0	-7.829132080078125	-9.328372955322266	-495.5350646972656	-0.0	-0.0	-0.0	-0.0	-0.0	-0.0	148846.28125	39467.9453125	-2759.1416015625
0.59	-0.0	-0.0	-0.0	-0.0	-0.0	-0.0	-7.108091354370117	-9.561100959777832	-498.8094787597656	-0.0	-0.0	-0.0	-0.0	-0.0	-0.0	149166.34375	38804.02734375	-2558.591064453125
0.5905	-0.0	-0.0	-0.0	-0.0	-0.0	-0.0	-6.30961799621582	-10.543590545654297	-500.378173828125	-0.0	-0.0	-0.0	-0.0	-0.0	-0.0	149122.484375	38331.7578125	-2302.484130859375
0.591	-0.0	-0.0	-0.0	-0.0	-0.0	-0.0	-5.555541515350342	-11.824074745178224	-501.6436767578125	-0.0	-0.0	-0.0	-0.0	-0.0	-0.0	148682.703125	37683.07421875	-2105.691650390625
0.5915	-0.0	-0.0	-0.0	-0.0	-0.0	-0.0	-4.934754371643066	-12.938838958740234	-502.7349548339844	-0.0	-0.0	-0.0	-0.0	-0.0	-0.0	148390.5	36961.484375	-2005.338134765625
0.592	-0.0	-0.0	-0.0	-0.0	-0.0	-0.0	-4.214359760284424	-14.119388580322266	-501.1187133789063	-0.0	-0.0	-0.0	-0.0	-0.0	-0.0	147777.5	36492.5390625	-1753.1038818359375
0.5925	-0.0	-0.0	-0.0	-0.0	-0.0	-0.0	-3.5828065872192383	-15.67621612548828	-499.2370910644531	-0.0	-0.0	-0.0	-0.0	-0.0	-0.0	146946.015625	35276.0234375	-1615.6556396484375
0.593	-0.0	-0.0	-0.0	-0.0	-0.0	-0.0	-2.650519132614136	-17.51996421813965	-501.254150390625	-0.0	-0.0	-0.0	-0.0	-0.0	-0.0	146331.09375	34564.88671875	-1533.65283203125
0.5935	-0.0	-0.0	-0.0	-0.0	-0.0	-0.0	-2.129058837890625	-19.021203994750977	-500.4609375	-0.0	-0.0	-0.0	-0.0	-0.0	-0.0	146215.25	33465.453125	-1515.6243896484375
0.594	-0.0	-0.0	-0.0	-0.0	-0.0	-0.0	-1.1319111585617063	-20.19381332397461	-501.284423828125	-0.0	-0.0	-0.0	-0.0	-0.0	-0.0	146011.03125	32729.556640625	-1318.2841796875
0.5945	-0.0	-0.0	-0.0	-0.0	-0.0	-0.0	-0.979824960231781	-21.363306045532227	-503.0024719238281	-0.0	-0.0	-0.0	-0.0	-0.0	-0.0	145868.296875	31931.1328125	-1307.80029296875
0.595	-0.0	-0.0	-0.0	-0.0	-0.0	-0.0	0.0992258489131927	-22.0025691986084	-504.5241088867188	-0.0	-0.0	-0.0	-0.0	-0.0	-0.0	145656.203125	31163.126953125	-1293.155029296875
0.5955	-0.0	-0.0	-0.0	-0.0	-0.0	-0.0	0.3234859108924866	-22.49081039428711	-505.65380859375	-0.0	-0.0	-0.0	-0.0	-0.0	-0.0	145909.0	30330.85546875	-1132.7161865234375
